<?xml version="1.0" encoding="UTF-8" standalone="no"?>
<!DOCTYPE svg PUBLIC "-//W3C//DTD SVG 1.1//EN" "http://www.w3.org/Graphics/SVG/1.1/DTD/svg11.dtd">
<svg width="100%" height="100%" viewBox="0 0 600 600" version="1.1" xmlns="http://www.w3.org/2000/svg" xmlns:xlink="http://www.w3.org/1999/xlink" xml:space="preserve" xmlns:serif="http://www.serif.com/" style="fill-rule:evenodd;clip-rule:evenodd;stroke-linejoin:round;stroke-miterlimit:2;">
    <g transform="matrix(1,0,0,1,-76.236,353.853)">
        <g id="Red-Hat-Display" serif:id="Red Hat Display">
            <g transform="matrix(720,0,0,720,90.396,198.147)">
                <path d="M0.407,0.011C0.355,0.011 0.307,0.002 0.262,-0.017C0.217,-0.035 0.177,-0.061 0.143,-0.094C0.11,-0.127 0.084,-0.165 0.065,-0.209C0.046,-0.252 0.036,-0.299 0.036,-0.35C0.036,-0.401 0.045,-0.448 0.064,-0.492C0.083,-0.535 0.109,-0.574 0.142,-0.607C0.176,-0.64 0.215,-0.665 0.26,-0.684C0.305,-0.702 0.353,-0.711 0.405,-0.711C0.463,-0.711 0.518,-0.7 0.569,-0.677C0.62,-0.654 0.663,-0.621 0.696,-0.58L0.595,-0.487C0.544,-0.548 0.481,-0.578 0.405,-0.578C0.363,-0.578 0.325,-0.568 0.292,-0.548C0.259,-0.528 0.233,-0.501 0.214,-0.467C0.195,-0.432 0.185,-0.393 0.185,-0.35C0.185,-0.307 0.195,-0.268 0.215,-0.233C0.234,-0.198 0.261,-0.171 0.295,-0.151C0.329,-0.131 0.367,-0.121 0.409,-0.121C0.458,-0.121 0.501,-0.135 0.537,-0.162C0.572,-0.189 0.594,-0.224 0.603,-0.267L0.396,-0.267L0.396,-0.393L0.758,-0.393L0.758,-0.349C0.758,-0.297 0.749,-0.249 0.732,-0.205C0.715,-0.162 0.69,-0.124 0.659,-0.092C0.627,-0.059 0.59,-0.034 0.547,-0.016C0.504,0.002 0.458,0.011 0.407,0.011Z" style="fill-rule:nonzero;"/>
            </g>
        </g>
    </g>
</svg>
